# xmcd
#
# Track frame offsets:
#  150
#  21705
#  43500
#  58897
#  94617
#  108680
#  132877
#  146605
#  164672
#  181210
#  200627
#  226892
#  250614
#  275213
#  294936
#
# Disc length: 4191 seconds
#
# Revision: 0
# Processed by: cddbd v1.5.1PL2 Copyright (c) Steve Scherf et al.
# Submitted via: Collectorz.com_Music_Collector 6.9
#
DISCID=e5105d0f
DTITLE=Collage - Changes
DYEAR=1995
DGENRE=Progressive Rock
TTITLE0=Changes
TTITLE1=Lullaby '87
TTITLE2=The Wizards
TTITLE3=The Night Falls
TTITLE4=You And Me '88
TTITLE5=Just Like Heaven Part 1
TTITLE6=Just Like Heaven Part 2
TTITLE7=Midnight Flyer
TTITLE8=38,39
TTITLE9=Conversation '86
TTITLE10=Lovely Day '92
TTITLE11=The Blues '92
TTITLE12=Sun Meadows
TTITLE13=Old Romantic Style
TTITLE14=Living In The Moonlight
EXTD=
EXTT0=
EXTT1=
EXTT2=
EXTT3=
EXTT4=
EXTT5=
EXTT6=
EXTT7=
EXTT8=
EXTT9=
EXTT10=
EXTT11=
EXTT12=
EXTT13=
EXTT14=
PLAYORDER=
